# xmcd CD database file
#
# Track frame offsets:
#	150
#	19312
#	39001
#	59501
#	76623
#	97302
#	118981
#	136982
#	154406
#	171130
#	192962
#
# Disc length: 2796 seconds
#
# Revision: 0
# Processed by: cddbd v1.5.1PL0 Copyright (c) Steve Scherf et al.
# Submitted via: CDex 1.50beta9
#
DISCID=920aea0b
DTITLE=TAMAGO - タマゴロミックス
DYEAR=2005
DGENRE=Vocal
TTITLE0=Shine forever
TTITLE1=着メロは歌わない
TTITLE2=LEMON
TTITLE3=一緒だね
TTITLE4=3D HEART
TTITLE5=待ってるから
TTITLE6=honey sugar boy
TTITLE7=メガネファイブ参上！(original full size version)
TTITLE8=マイペースでお買いもの(original full size version)
TTITLE9=二人の鼻
TTITLE10=MELO-CHE！
EXTD=YEAR: 2005
EXTT0=
EXTT1=
EXTT2=
EXTT3=
EXTT4=
EXTT5=
EXTT6=
EXTT7=
EXTT8=
EXTT9=
EXTT10=
PLAYORDER=
